<?xml version="1.0" encoding="utf-8"?>
<!-- Generator: Adobe Illustrator 22.1.0, SVG Export Plug-In . SVG Version: 6.00 Build 0)  -->
<svg version="1.2" baseProfile="tiny" id="Слой_1"
	 xmlns="http://www.w3.org/2000/svg" xmlns:xlink="http://www.w3.org/1999/xlink" x="0px" y="0px" viewBox="0 0 1438.4 586.6"
	 xml:space="preserve">
<g>
	<path fill="#1DB954" d="M665.7,579.4H100.2c-52.9,0-95.7-42.9-95.7-95.7V105.2c0-52.9,42.9-95.7,95.7-95.7h565.5
		c52.9,0,95.7,42.9,95.7,95.7v378.5C761.5,536.6,718.6,579.4,665.7,579.4z"/>
	<g>
		<path fill="#FFFFFF" d="M32.2,416.9V119h103.9c36.4,0,66.4,11.6,90,34.9c23.6,23.3,35.4,53.1,35.4,89.5v49.3
			c0,36.6-11.8,66.4-35.4,89.5c-23.6,23.1-53.6,34.7-90,34.7H32.2z M92,165v206h44.2c19.6,0,35.5-7.3,47.5-22
			c12-14.7,18-33.5,18-56.4V243c0-22.8-6-41.5-18-56.1c-12-14.6-27.8-21.9-47.5-21.9H92z"/>
		<path fill="#FFFFFF" d="M295.8,304.1c0-33,9.2-60,27.6-81.1c18.4-21.1,43.9-31.6,76.5-31.6c32.7,0,58.4,10.5,76.9,31.5
			c18.5,21,27.8,48.1,27.8,81.2v4.3c0,33.3-9.2,60.4-27.7,81.3c-18.5,20.9-44,31.4-76.6,31.4c-32.7,0-58.3-10.5-76.8-31.4
			c-18.5-20.9-27.7-48-27.7-81.3V304.1z M355.3,308.4c0,20.2,3.5,36.4,10.6,48.6c7.1,12.2,18.5,18.3,34.4,18.3
			c15.4,0,26.7-6.1,33.9-18.4c7.2-12.3,10.7-28.4,10.7-48.5v-4.3c0-19.6-3.6-35.7-10.8-48.1c-7.2-12.4-18.6-18.6-34.2-18.6
			c-15.4,0-26.7,6.2-33.9,18.7c-7.2,12.5-10.7,28.5-10.7,48V308.4z"/>
		<path fill="#FFFFFF" d="M596.1,195.5l2.7,31.7c7.4-11.3,16.4-20.1,27.2-26.4c10.8-6.3,22.8-9.4,36.2-9.4
			c22.4,0,39.8,7.2,52.4,21.6c12.5,14.4,18.8,37.1,18.8,68.2v135.6h-59.9V281.4c0-15.8-2.8-27-8.3-33.7c-5.5-6.6-13.8-9.9-24.9-9.9
			c-8.9,0-16.7,1.7-23.4,5c-6.8,3.3-12.3,7.9-16.7,13.8v160.2h-59.7V195.5H596.1z"/>
		<path d="M840.8,416.9H781V97.7h59.7V416.9z"/>
		<path d="M952.7,142.5H893V97.7h59.7V142.5z M952.7,416.9H893V195.5h59.7V416.9z"/>
		<path d="M1056.4,195.5l2.7,31.7c7.4-11.3,16.4-20.1,27.2-26.4c10.8-6.3,22.8-9.4,36.2-9.4c22.4,0,39.8,7.2,52.4,21.6
			c12.5,14.4,18.8,37.1,18.8,68.2v135.6h-59.9V281.4c0-15.8-2.8-27-8.3-33.7c-5.5-6.6-13.8-9.9-24.9-9.9c-8.9,0-16.7,1.7-23.4,5
			c-6.8,3.3-12.3,7.9-16.7,13.8v160.2h-59.7V195.5H1056.4z"/>
		<path d="M1334.3,421.2c-33,0-58.8-10.1-77.3-30.4c-18.6-20.3-27.8-46.3-27.8-78.3v-8.2c0-33.1,9-60.3,27-81.4
			c18-21.1,42.8-31.6,74.3-31.5c29.7,0,52.5,9.1,68.4,27.3c15.9,18.2,23.8,42.7,23.8,73.6v30.9h-132l-0.6,1.2
			c1,15.1,5.6,27.4,13.8,36.8c8.3,9.4,20.5,14.1,36.7,14.1c13.4,0,24.7-1.4,34.1-4.1c9.3-2.7,19-6.9,29-12.5l16.2,36.8
			c-8.9,7.2-20.9,13.3-36,18.2S1352.1,421.2,1334.3,421.2z M1330.4,237.5c-12,0-21.2,4.1-27.7,12.4c-6.5,8.3-10.4,19.2-11.8,32.8
			l0.4,1h72.8v-4.5c0-13-2.7-23.2-8-30.6C1350.8,241.2,1342.2,237.5,1330.4,237.5z"/>
	</g>
</g>
</svg>
